<svg width="370" height="258" viewBox="0 0 370 258" xmlns="http://www.w3.org/2000/svg" xmlns:xlink="http://www.w3.org/1999/xlink"><defs><filter x="-50%" y="-50%" width="200%" height="200%" filterUnits="objectBoundingBox" id="a"><feOffset dy="2" in="SourceAlpha" result="shadowOffsetOuter1"/><feGaussianBlur stdDeviation="2" in="shadowOffsetOuter1" result="shadowBlurOuter1"/><feColorMatrix values="0 0 0 0 0.428571429 0 0 0 0 0.196978152 0 0 0 0 0.225084132 0 0 0 0.499971694 0" in="shadowBlurOuter1" result="shadowMatrixOuter1"/><feMerge><feMergeNode in="shadowMatrixOuter1"/><feMergeNode in="SourceGraphic"/></feMerge></filter><ellipse id="b" cx="118.979" cy="124.95" rx="118.979" ry="124.95"/></defs><g fill="none" fill-rule="evenodd"><g transform="translate(46 2)"><g filter="url(#a)" transform="translate(.812)"><mask id="c" fill="#fff"><use xlink:href="#b"/></mask><use fill="#FFF" xlink:href="#b"/><path d="M126.234-31.238l-3.99 16.76v141.714L-37 91.424s44.98 156.19 48.608 156.19c3.627 0 174.116 38.095 174.116 38.095s95.763-140.95 95.763-147.046c0-6.095-37.725-120.38-37.725-120.38l-117.528-49.52z" fill="#D0021B" mask="url(#c)"/></g><ellipse fill="#F5F5F5" cx="119.791" cy="124.95" rx="96.77" ry="101.626"/></g><g fill="#D0021B"><path d="M353.935 112.57v12.321h-3.875v-12.307c0-7.405-.257-7.677-6.836-14.644-6.078-6.438-6.078-6.438-6.078-12.71v-6.84c0-14.327 6.662-25.985 14.85-25.985 8.187 0 14.85 11.656 14.85 25.986l.002 6.837c0 6.272 0 6.272-6.08 12.71-6.573 6.962-6.833 7.24-6.833 14.632zm-3.875 87.543h3.874v-72.487h-3.874v72.487zM369.43 78.39c0-15.837-7.82-28.72-17.433-28.72-9.61 0-17.435 12.883-17.435 28.72v6.84c0 7.405.257 7.677 6.836 14.643 6.078 6.437 6.078 6.437 6.078 12.71v88.895c0 .757.578 1.37 1.292 1.37h6.456c.714 0 1.292-.613 1.292-1.37v-88.884-.013c0-6.27 0-6.27 6.08-12.708 6.58-6.967 6.834-7.24 6.834-14.644V78.39zM318.42 200.07h3.874v-72.487h-3.874v72.487zm-6.456-94.935v-60.98c0-3.016 2.318-5.47 5.166-5.47 2.85 0 5.164 2.454 5.164 5.47v80.693h-3.874v-5.47c0-7.254-.26-7.68-6.456-14.243zm5.166-69.185c-4.273 0-7.748 3.68-7.748 8.206V105.7c0 .18.033.356.1.522.065.167.16.32.278.446 6.078 6.437 6.078 6.437 6.078 12.71v82.057c0 .757.578 1.37 1.292 1.37h6.456c.714 0 1.292-.613 1.292-1.37V44.156c0-4.524-3.475-8.205-7.748-8.205zM9.042 199.752h3.874v-72.487H9.042v72.487zM21.954 50.677c0-.756-.578-1.368-1.292-1.368-.714 0-1.29.61-1.29 1.367V97.98c-6.19 6.558-6.456 6.987-6.456 14.228l-.002.013v12.31H9.04v-12.31c0-7.253-.263-7.68-6.456-14.24V50.676c0-.756-.578-1.368-1.292-1.368-.714 0-1.292.61-1.292 1.367v47.867c0 .18.035.356.1.523.064.166.16.318.278.445 6.078 6.437 6.078 6.437 6.078 12.71v88.895c0 .757.578 1.37 1.29 1.37h6.458c.714 0 1.292-.613 1.292-1.37v-88.884l.002-.013c0-6.272 0-6.272 6.078-12.71.118-.126.213-.278.28-.445.065-.17.098-.345.098-.522V50.677z"/><path d="M7.75 79.396c.713 0 1.292-.612 1.292-1.368v-27.35c0-.757-.58-1.37-1.292-1.37-.714 0-1.29.613-1.29 1.37V78.03c0 .754.576 1.366 1.29 1.366M14.207 79.396c.714 0 1.292-.612 1.292-1.368v-27.35c0-.757-.58-1.37-1.293-1.37s-1.29.613-1.29 1.37V78.03c0 .754.577 1.366 1.29 1.366"/></g></g></svg>